<svg xmlns="http://www.w3.org/2000/svg" version="1.1" x="0" y="0" width="512" height="512" viewBox="0 0 512 512" xml:space="preserve"><style>path{fill:#BABABA}</style><path d="M129.1 223.3L55.9 96.4C102.8 37.7 175 0 256 0c93.7 0 175.7 50.4 220.3 125.5H267.4c-3.8-0.3-7.5-0.5-11.4-0.5C195.1 125 143.7 166.8 129.1 223.3zM347.7 162.5h146.7c11.4 29 17.6 60.5 17.6 93.5 0 140.4-113.1 254.4-253.1 256l104.7-181.3C378.3 309.5 387 283.7 387 256 387 219.4 371.9 186.3 347.7 162.5zM163 256c0-51.3 41.7-93 93-93 51.3 0 93 41.7 93 93 0 51.3-41.7 93-93 93C204.7 349 163 307.3 163 256zM291.1 382.2l-73.3 126.9C94.5 490.7 0 384.4 0 256c0-45.6 11.9-88.4 32.8-125.5l104.5 181c20.9 44.6 66.2 75.5 118.6 75.5C268.2 387 279.9 385.3 291.1 382.2z"/></svg>
