<svg xmlns="http://www.w3.org/2000/svg" version="1.1" x="0" y="0" viewBox="0 0 502.7 502.7" xml:space="preserve"><style>path{fill:#BABABA}</style><path d="M501.2 174l-11.9 26.4c0 0-5.2-48.8-13.2-75.2 -7.9-26.4-25-43.5-25-43.5l7.9 35.6c0 0-27.6-33.8-54.1-46 -4.1-1.9-8.3-3.8-12.4-5.6 -34.9-31.1-80.7-50.2-131.1-50.2 -71.4 0-133.7 38-168.3 94.8 -1.7-1.1-11.6-7.4-16.4-19.4 -5.3-13.2-8-27.7-8-27.7 -32.9 31.6-25.1 84.4-25.1 84.4s-13.2 13.2-26.3 34.3C4 203 0 241.2 0 241.2l22.4-23.7c0 0-5.3 10.5-9.2 30.3 -4 19.8-2.7 51.5-2.7 51.5l11.9-25.1c0 0 0 80.5 76.5 151.7 76.5 71.2 213.6 91.1 317.8 1.3S501.2 174 501.2 174zM261.3 41.4c40.7 0 78.1 14.3 107.5 38l-37.7 6.3c0 0 38.2 11.9 67.2 34.3 7.2 5.6 13.2 12.6 18 20 6.4 13.5 11 28 13.7 43.2l-18.4-14.4c0 0 6.6 7.9 7.9 29 1.3 21.1-5.3 59.3-5.3 59.3l-17.1-19.8c0 0 3.9 33-2.7 62 -6.6 28.9-21.1 40.8-21.1 40.8l2.6-34.3c0 0-19.8 43.6-75.2 60.7 -55.4 17.1-108.1-31.6-108.1-31.6 35.6 9.2 58-9.3 76.5-18.5 18.4-9.3 27.7-10.6 35.6-10.6 7.9 0 0-18.4-14.5-26.4 -14.5-7.9-31.6-3.9-65.9 5.3 -34.3 9.2-55.4-19.8-54.1-39.5 1.3-19.8 33-8 33-8l-1.3-39.5c0 0 52.7-32.9 48.8-40.9 -3.9-7.9-22.4-5.2-38.2-10.5 -15.8-5.2-25-19.8-25-19.8s-2.7-10.5 2.6-19.7c5.2-9.3 23.7-22.5 23.7-22.5s-11.8-1.3-31.6 5.3c-19.8 6.6-34.3 18.5-34.3 18.5s-3.9-1.2-20-2.5C159.1 66.5 207.3 41.4 261.3 41.4z" fill="#010002"/></svg>
