<svg xmlns="http://www.w3.org/2000/svg" version="1.1" x="0" y="0" width="486.4" height="486.4" viewBox="0 0 486.4 486.4" xml:space="preserve"><style>path{fill:#BABABA}</style><path d="M367.1 280.8h118c0.9-8.2 1.3-16.5 1.3-25.1 0-40.1-10.8-77.7-29.6-110.1 19.4-51.7 18.7-95.5-7.3-121.7C424.8-0.8 358.4 3.2 283.4 36.5c-5.6-0.4-11.2-0.6-16.8-0.6 -103 0-189.5 70.9-213.4 166.4 32.3-41.4 66.3-71.4 111.7-93.2 -4.1 3.9-28.2 27.8-32.3 31.9C12.9 260.7-24.9 417.1 15.7 457.7c30.9 30.9 86.9 25.7 151.2-5.8 29.9 15.2 63.8 23.8 99.6 23.8 96.6 0 178.4-62.2 208-148.7H355.6c-16.4 30.2-48.4 50.7-85.1 50.7s-68.7-20.5-85.1-50.7c-7.3-13.6-11.5-29.3-11.5-45.8v-0.4H367.1zM174.2 222.8c2.7-48.6 43.1-87.3 92.4-87.3 49.3 0 89.7 38.7 92.4 87.3H174.2zM448.5 48.3c16.8 16.9 16.3 48.1 2 87 -24.6-37.5-60.3-67-102.4-83.8C393.1 32.2 429.8 29.6 448.5 48.3zM46.7 450C25.4 428.6 31.8 383.7 59.4 329.6c17.2 48.1 50.6 88.5 93.7 114.6C105.3 465.8 66.3 469.5 46.7 450z"/></svg>
