<svg xmlns="http://www.w3.org/2000/svg" version="1.1" x="0" y="0" width="512" height="512" viewBox="0 0 512 512" xml:space="preserve"><style>path{fill:#BABABA}</style><path d="M256 32c-12 0-23.9 0.9-35.4 2.6 -0.1-0.4-0.3-0.8-0.5-1.1 6.4-5 9.8-11.9 8.3-18.8C226.5 5.9 217.2 0 205.2 0c-2.6 0-5.2 0.3-7.8 0.8 -15.1 3.2-25.1 14.3-22.7 25.3 1.4 6.7 7.1 11.7 15.1 13.7 0 0.5 0 1 0 1.5C89.4 70 16 162.4 16 272c0 132.5 107.5 240 240 240 132.5 0 240-107.5 240-240C496 139.5 388.5 32 256 32zM182.4 24.5c-1.4-6.4 6.2-13.6 16.6-15.8C201.1 8.2 203.2 8 205.2 8c8 0 14.3 3.4 15.4 8.3 0.8 3.8-1.5 7.8-5.7 11 -3.5-2.5-8-3.6-12.5-2.6 -4.5 1-8.2 3.8-10.4 7.4C186.9 30.9 183.2 28.1 182.4 24.5zM384.7 400.7c-22 22-48.6 37.6-77.7 46.1l-21.2-34.4 -5.4 40C272.4 453.4 264.3 454 256 454c-48.6 0-94.3-18.9-128.7-53.3 -22-22-37.6-48.6-46.1-77.7l34.4-21.2 -40-5.4C74.6 288.4 74 280.3 74 272c0-48.6 18.9-94.3 53.3-128.7 22-22 48.6-37.6 77.7-46.1l21.2 34.4 5.4-40C239.6 90.6 247.7 90 256 90c48.6 0 94.3 18.9 128.7 53.3 22 22 37.6 48.6 46.1 77.7l-34.4 21.2 40 5.4C437.4 255.6 438 263.7 438 272 438 320.6 419.1 366.3 384.7 400.7zM380.5 147.5l-98.5 74.9c-7.3-3.8-15.4-6-23.7-6.4l-25.5-53.6 -1.5 59.3c-6.6 3.3-12.6 7.8-17.4 13.5l-31.5-11.2 23 24.3c-3.2 6.8-4.9 14-5.2 21.4l-53.6 25.5 59.4 1.5c0.2 0.4 0.4 0.8 0.6 1.1l-74.9 98.5 98.5-74.9c7.3 3.8 15.4 6 23.7 6.4l25.5 53.6 1.5-59.3c6.6-3.3 12.6-7.8 17.4-13.5l31.5 11.2 -23-24.3c3.2-6.8 4.9-14 5.2-21.4l53.6-25.5 -59.4-1.5c-0.2-0.4-0.4-0.8-0.6-1.1L380.5 147.5zM256.1 222.3v1.7V222.3L256.1 222.3zM246 225c3.4-0.7 6.7-1.1 10-1.1 2.1 0 4.1 0.1 6.1 0.4l0 0 0 0c4.4 0.6 8.6 1.8 12.6 3.4l-35.8 27.2 -27.2 35.8c-1.2-2.8-2.1-5.7-2.8-8.8C203.5 256 220.1 230.6 246 225zM281.1 312.9L281.1 312.9 281.1 312.9c-4.5 2.8-9.6 4.8-15.1 6 -3.4 0.7-6.7 1.1-10 1.1 -2.1 0-4.1-0.1-6.2-0.4l0 0 0 0c-4.4-0.6-8.6-1.7-12.6-3.4l35.8-27.2 27.2-35.8c1.2 2.8 2.1 5.7 2.8 8.8C307.3 282.5 297.9 302.6 281.1 312.9z"/></svg>
